<svg xmlns="http://www.w3.org/2000/svg" viewBox="0 0 158.98 131.03"><defs><style>.cls-1{font-size:20px;font-family:Montserrat-Bold, Montserrat Bold;font-weight:700;}.cls-1,.cls-6{fill:#39a0ed;}.cls-2{letter-spacing:-0.02em;}.cls-3,.cls-4{fill:#e4572e;}.cls-3{letter-spacing:-0.02em;}.cls-5{fill:#64b0e3;}.cls-7{fill:#f7b32b;}.cls-8{fill:#13c4a3;}</style></defs><g id="Layer_2" data-name="Layer 2"><g id="OBJECTS"><text class="cls-1" transform="translate(44.86 126.03)">P<tspan class="cls-2" x="10.64" y="0">K</tspan><tspan class="cls-3" x="21.14" y="0">C</tspan><tspan class="cls-4" x="32.32" y="0">ODE</tspan></text><path class="cls-5" d="M10.27,47.74c3.2,1.09,4.69,3.19,4.69,8.18V80.55c0,5.09,2.4,8,7.58,8h2.7v5.88H21.55c-9,0-13.67-4.39-13.67-13.27V55.82c0-3.6-1.6-5.09-4.49-5.09H0v-6H3.39c2.89,0,4.49-1.49,4.49-5.09V14.32c0-8.88,4.69-13.27,13.67-13.27h3.69V6.93h-2.7c-5.18,0-7.58,2.9-7.58,8V39.55C15,44.54,13.47,46.64,10.27,47.74Z"/><path class="cls-5" d="M159,44.74v6h-3.39c-2.79,0-4.49,1.49-4.49,5.09V81.15c0,8.88-4.69,13.27-13.56,13.27h-3.8V88.54h2.7c5.19,0,7.58-2.9,7.58-8V55.92c0-5,1.5-7.09,4.69-8.18-3.19-1.1-4.69-3.2-4.69-8.19V14.92c0-5.09-2.39-8-7.58-8h-2.7V1.05h3.8c8.87,0,13.56,4.39,13.56,13.27V39.65c0,3.6,1.7,5.09,4.49,5.09Z"/><rect class="cls-4" x="96.36" y="4.48" width="19.32" height="16.34" rx="3.53"/><rect class="cls-4" x="80.78" y="79.13" width="19.32" height="16.34" rx="3.53"/><rect class="cls-6" x="42.5" y="59.25" width="19.32" height="16.34" rx="3.53"/><rect class="cls-7" x="68.09" y="31.47" width="14.3" height="12.1" rx="2.61"/><rect class="cls-8" x="85.64" y="53.42" width="7.15" height="6.05" rx="1.31"/><rect class="cls-7" x="112.91" y="67.43" width="7.15" height="6.05" rx="1.31"/><rect class="cls-8" x="31.78" y="43.57" width="7.15" height="6.05" rx="1.31"/><rect class="cls-6" x="64.51" width="7.15" height="6.05" rx="1.31"/><rect class="cls-6" x="112.91" y="44.34" width="14.3" height="12.1" rx="2.61"/><rect class="cls-4" x="35.35" y="17.62" width="14.3" height="12.1" rx="2.61"/></g></g></svg>